# xmcd
#
# Track frame offsets: 
#        150
#        13185
#        27907
#        40057
#        52414
#        64582
#        77630
#        90305
#        100355
#        110255
#        124807
#        137400
#        151872
#        165075
#        175880
#        187657
#
# Disc length: 2649 seconds
#
# Revision: 4
# Processed by: cddbd v1.5.2PL0 Copyright (c) Steve Scherf et al.
# Submitted via: ExactAudioCopyFreeDBPlugin 1.0
#
DISCID=bb0a5710
DTITLE=Red Foley - Red Foley Country Music Hall Of Fame Series
DYEAR=1991
DGENRE=Country
TTITLE0=Hang Your Head In Shame
TTITLE1=Old Shep
TTITLE2=Tennessee Saturday Night
TTITLE3=Tennessee Border
TTITLE4=Careless Kisses
TTITLE5=Just A Closer Walk With Thee
TTITLE6=Chattanoogie Shoe Shine Boy
TTITLE7=When God Dips His Love In My Heart
TTITLE8=Don't Be Ashamed Of Your Age
TTITLE9=Peace In The Valley
TTITLE10=Alabama Jubilee
TTITLE11=Midnight
TTITLE12=One By One
TTITLE13=Deep Blues
TTITLE14=As Far As I'm Concerned
TTITLE15=Sugarfoot Rag
EXTD=YEAR: 1991
EXTT0=
EXTT1=
EXTT2=
EXTT3=
EXTT4=
EXTT5=
EXTT6=
EXTT7=
EXTT8=
EXTT9=
EXTT10=
EXTT11=
EXTT12=
EXTT13=
EXTT14=
EXTT15=
PLAYORDER=
